<svg width="32" height="32" viewBox="0 0 32 32" fill="none" xmlns="http://www.w3.org/2000/svg">
<path d="M0 5C0 2.23858 2.23858 0 5 0H27C29.7614 0 32 2.23858 32 5V27C32 29.7614 29.7614 32 27 32H5C2.23858 32 0 29.7614 0 27V5Z" fill="#FFC453"/>
<path d="M23.7966 14.3612L22.5806 10.7123C22.217 9.6216 21.201 8.88916 20.0517 8.88916H11.9468C10.7975 8.88916 9.78146 9.6216 9.41791 10.7123L8.20191 14.3612C7.56191 14.6305 7.11035 15.2634 7.11035 16.0003V20.4447C7.11035 21.1141 7.48635 21.6909 8.03391 21.9941C8.02235 22.0527 7.99924 22.1061 7.99924 22.1674V24.0003C7.99924 24.4918 8.39657 24.8892 8.88813 24.8892H9.77702C10.2686 24.8892 10.6659 24.4918 10.6659 24.0003V22.2225H21.3326V24.0003C21.3326 24.4918 21.7299 24.8892 22.2215 24.8892H23.1104C23.6019 24.8892 23.9992 24.4918 23.9992 24.0003V22.1674C23.9992 22.1061 23.9761 22.0518 23.9646 21.9941C24.5121 21.6909 24.8881 21.1141 24.8881 20.4447V16.0003C24.8881 15.2634 24.4366 14.6305 23.7966 14.3612ZM8.88813 20.4447V16.0003H23.1104L23.1121 20.4447H8.88813ZM11.9468 10.6669H20.0508C20.4339 10.6669 20.7735 10.9105 20.8944 11.2749L21.8775 14.2225H10.121L11.1032 11.2749C11.225 10.9105 11.5646 10.6669 11.9468 10.6669Z" fill="white"/>
<path d="M11.1107 19.5558C11.8471 19.5558 12.444 18.9589 12.444 18.2225C12.444 17.4861 11.8471 16.8892 11.1107 16.8892C10.3743 16.8892 9.77734 17.4861 9.77734 18.2225C9.77734 18.9589 10.3743 19.5558 11.1107 19.5558Z" fill="white"/>
<path d="M20.889 19.5558C21.6254 19.5558 22.2223 18.9589 22.2223 18.2225C22.2223 17.4861 21.6254 16.8892 20.889 16.8892C20.1526 16.8892 19.5557 17.4861 19.5557 18.2225C19.5557 18.9589 20.1526 19.5558 20.889 19.5558Z" fill="white"/>
</svg>
