<svg width="60" height="67" viewBox="0 0 60 67" fill="none" xmlns="http://www.w3.org/2000/svg">
<g clip-path="url(#clip0_1398_151)">
<path d="M41.7698 1.28509L1.05076 10.8363C0.318527 11.0087 -0.135964 11.7402 0.0365741 12.4716L12.4256 65.1841C12.5982 65.9156 13.3304 66.3696 14.0627 66.1972L53.4561 56.9571C54.1884 56.7848 54.6428 56.0533 54.4703 55.3218L47.0638 23.8179C46.8913 23.0864 47.3457 22.3549 48.078 22.1826L52.0758 21.2452C52.808 21.0728 53.2626 20.3413 53.09 19.6098L48.7302 1.04968C48.5577 0.318196 47.8255 -0.135823 47.0932 0.0365361L41.7698 1.28509Z" fill="#FFC453"/>
<path opacity="0.1" d="M60.0007 10.0001L53.4106 9.10889L51.0918 61.565L27.2773 62.9649L52.3711 66.3532L60.0007 10.0001Z" fill="black"/>
<path d="M15.5215 2.04785L7.88721 58.4062L50.6878 64.1919L58.322 7.8335L15.5215 2.04785Z" fill="#FBFBFB"/>
<path opacity="0.1" d="M9.56787 60.5689L10.3045 60.6698V55.1375L9.56787 60.5689Z" fill="black"/>
<path opacity="0.1" d="M10.3042 7.09055V55.1367L16.8227 6.99805L10.3042 7.09055Z" fill="black"/>
<path opacity="0.1" d="M53.4935 7.17869L46.4699 6.24121C29.3844 6.67841 15.1394 19.4372 12.8459 36.3578L10.3042 55.1366V60.6689L27.2761 62.9642L51.0906 61.5643L53.4935 7.17869Z" fill="black"/>
<path d="M51.0917 4.69019H7.90234V61.5604H51.0917V4.69019Z" fill="#FBFBFB"/>
<path d="M48.175 7.72949H10.8184V15.6916H48.175V7.72949Z" fill="#E0E0E0"/>
<path d="M20.0011 19.1609H10.8145V28.338H20.0011V19.1609Z" fill="#34A862"/>
<path d="M14.8244 26.5555L11.9502 23.987L12.8634 22.9654L14.694 24.6007L17.8291 20.9434L18.8728 21.8388L14.8244 26.5555Z" fill="white"/>
<path d="M20.0011 33.2136H10.8145V42.3907H20.0011V33.2136Z" fill="#34A862"/>
<path d="M14.8244 40.6084L11.9502 38.0441L12.8634 37.0183L14.694 38.6536L17.8291 35.0005L18.8728 35.8917L14.8244 40.6084Z" fill="white"/>
<path d="M20.0011 47.4016H10.8145V56.5787H20.0011V47.4016Z" fill="#34A862"/>
<path d="M14.8244 54.7964L11.9502 52.2321L12.8634 51.2105L14.694 52.8416L17.8291 49.1885L18.8728 50.0797L14.8244 54.7964Z" fill="white"/>
<path d="M47.9298 19.1609H24.2373V21.7589H47.9298V19.1609Z" fill="#CCCCCC"/>
<path d="M38.0909 23.0874H24.2373V25.6854H38.0909V23.0874Z" fill="#CCCCCC"/>
<path d="M47.9298 33.2136H24.2373V35.8116H47.9298V33.2136Z" fill="#CCCCCC"/>
<path d="M38.0909 37.1401H24.2373V39.7381H38.0909V37.1401Z" fill="#CCCCCC"/>
<path d="M47.9298 47.4058H24.2373V50.0038H47.9298V47.4058Z" fill="#CCCCCC"/>
<path d="M38.0909 51.3323H24.2373V53.9303H38.0909V51.3323Z" fill="#CCCCCC"/>
</g>
<defs>
<clipPath id="clip0_1398_151">
<rect width="60" height="66.3529" fill="white"/>
</clipPath>
</defs>
</svg>
